{
	"asset":{
		"generator":"Khronos glTF Blender I/O v4.0.44",
		"version":"2.0"
	},
	"extensionsUsed":[
		"KHR_materials_specular",
		"KHR_materials_ior"
	],
	"scene":0,
	"scenes":[
		{
			"name":"Scene",
			"nodes":[
				0,
				1
			]
		}
	],
	"nodes":[
		{
			"mesh":0,
			"name":"mesh",
			"rotation":[
				0.13441328704357147,
				-0.6942140460014343,
				0.6942140460014343,
				0.13441328704357147
			],
			"scale":[
				1.8384604454040527,
				1.8384603261947632,
				1.8384602069854736
			],
			"translation":[
				-13.665406227111816,
				24.59255599975586,
				-0.061104029417037964
			]
		},
		{
			"mesh":1,
			"name":"Church"
		}
	],
	"materials":[
		{
			"doubleSided":true,
			"name":"base_material",
			"normalTexture":{
				"index":0
			},
			"pbrMetallicRoughness":{
				"baseColorTexture":{
					"index":1
				},
				"metallicRoughnessTexture":{
					"index":2
				}
			}
		},
		{
			"doubleSided":true,
			"extensions":{
				"KHR_materials_specular":{
					"specularFactor":0
				},
				"KHR_materials_ior":{
					"ior":1.4500000476837158
				}
			},
			"name":"churchHmain",
			"normalTexture":{
				"index":3
			},
			"pbrMetallicRoughness":{
				"baseColorTexture":{
					"index":4
				},
				"metallicFactor":0,
				"roughnessFactor":0
			}
		},
		{
			"doubleSided":true,
			"extensions":{
				"KHR_materials_specular":{
					"specularFactor":0
				},
				"KHR_materials_ior":{
					"ior":1.4500000476837158
				}
			},
			"name":"churchHtadd",
			"normalTexture":{
				"index":5
			},
			"pbrMetallicRoughness":{
				"baseColorTexture":{
					"index":6
				},
				"metallicFactor":0,
				"roughnessFactor":0.5
			}
		},
		{
			"doubleSided":true,
			"extensions":{
				"KHR_materials_specular":{
					"specularFactor":0
				},
				"KHR_materials_ior":{
					"ior":1.4500000476837158
				}
			},
			"name":"churchHwindows1",
			"normalTexture":{
				"index":7
			},
			"pbrMetallicRoughness":{
				"baseColorTexture":{
					"index":8
				},
				"metallicFactor":0,
				"roughnessFactor":0.5
			}
		},
		{
			"doubleSided":true,
			"extensions":{
				"KHR_materials_specular":{
					"specularTexture":{
						"index":9
					}
				},
				"KHR_materials_ior":{
					"ior":1.4500000476837158
				}
			},
			"name":"churchHwindows1G",
			"normalTexture":{
				"index":10
			},
			"pbrMetallicRoughness":{
				"baseColorTexture":{
					"index":11
				},
				"metallicFactor":0,
				"roughnessFactor":0
			}
		},
		{
			"doubleSided":true,
			"extensions":{
				"KHR_materials_specular":{
					"specularFactor":0
				},
				"KHR_materials_ior":{
					"ior":1.4500000476837158
				}
			},
			"name":"churchHwindows2",
			"normalTexture":{
				"index":12
			},
			"pbrMetallicRoughness":{
				"baseColorTexture":{
					"index":13
				},
				"metallicFactor":0,
				"roughnessFactor":0.5
			}
		},
		{
			"doubleSided":true,
			"extensions":{
				"KHR_materials_specular":{
					"specularTexture":{
						"index":14
					}
				},
				"KHR_materials_ior":{
					"ior":1.4500000476837158
				}
			},
			"name":"churchHwindows2G",
			"normalTexture":{
				"index":15
			},
			"pbrMetallicRoughness":{
				"baseColorTexture":{
					"index":16
				},
				"metallicFactor":0,
				"roughnessFactor":0
			}
		},
		{
			"doubleSided":true,
			"extensions":{
				"KHR_materials_specular":{
					"specularFactor":0.7054545283317566
				},
				"KHR_materials_ior":{
					"ior":1.4500000476837158
				}
			},
			"name":"churchHtop",
			"normalTexture":{
				"index":17
			},
			"pbrMetallicRoughness":{
				"baseColorTexture":{
					"index":18
				},
				"metallicFactor":0,
				"roughnessFactor":0.5
			}
		},
		{
			"doubleSided":true,
			"extensions":{
				"KHR_materials_specular":{
					"specularColorFactor":[
						2.0,
						2.0,
						2.0
					]
				},
				"KHR_materials_ior":{
					"ior":1.4500000476837158
				}
			},
			"name":"churchHmetal",
			"normalTexture":{
				"index":19
			},
			"pbrMetallicRoughness":{
				"baseColorTexture":{
					"index":20
				},
				"metallicFactor":0.9636363387107849,
				"roughnessFactor":0
			}
		}
	],
	"meshes":[
		{
			"name":"mesh",
			"primitives":[
				{
					"attributes":{
						"POSITION":0,
						"NORMAL":1,
						"TEXCOORD_0":2
					},
					"indices":3,
					"material":0
				}
			]
		},
		{
			"name":"Model_Kostel_Horice.002",
			"primitives":[
				{
					"attributes":{
						"POSITION":4,
						"NORMAL":5,
						"TEXCOORD_0":6
					},
					"indices":7,
					"material":1
				},
				{
					"attributes":{
						"POSITION":8,
						"NORMAL":9,
						"TEXCOORD_0":10
					},
					"indices":11,
					"material":2
				},
				{
					"attributes":{
						"POSITION":12,
						"NORMAL":13,
						"TEXCOORD_0":14
					},
					"indices":15,
					"material":3
				},
				{
					"attributes":{
						"POSITION":16,
						"NORMAL":17,
						"TEXCOORD_0":18
					},
					"indices":19,
					"material":4
				},
				{
					"attributes":{
						"POSITION":20,
						"NORMAL":21,
						"TEXCOORD_0":22
					},
					"indices":23,
					"material":5
				},
				{
					"attributes":{
						"POSITION":24,
						"NORMAL":25,
						"TEXCOORD_0":26
					},
					"indices":27,
					"material":6
				},
				{
					"attributes":{
						"POSITION":28,
						"NORMAL":29,
						"TEXCOORD_0":30
					},
					"indices":31,
					"material":7
				},
				{
					"attributes":{
						"POSITION":32,
						"NORMAL":33,
						"TEXCOORD_0":34
					},
					"indices":35,
					"material":8
				}
			]
		}
	],
	"textures":[
		{
			"sampler":0,
			"source":0
		},
		{
			"sampler":0,
			"source":1
		},
		{
			"sampler":0,
			"source":2
		},
		{
			"sampler":0,
			"source":3
		},
		{
			"sampler":0,
			"source":3
		},
		{
			"sampler":0,
			"source":4
		},
		{
			"sampler":0,
			"source":4
		},
		{
			"sampler":0,
			"source":5
		},
		{
			"sampler":0,
			"source":5
		},
		{
			"sampler":0,
			"source":6
		},
		{
			"sampler":0,
			"source":5
		},
		{
			"sampler":0,
			"source":5
		},
		{
			"sampler":0,
			"source":7
		},
		{
			"sampler":0,
			"source":7
		},
		{
			"sampler":0,
			"source":8
		},
		{
			"sampler":0,
			"source":7
		},
		{
			"sampler":0,
			"source":7
		},
		{
			"sampler":0,
			"source":9
		},
		{
			"sampler":0,
			"source":9
		},
		{
			"sampler":0,
			"source":10
		},
		{
			"sampler":0,
			"source":10
		}
	],
	"images":[
		{
			"mimeType":"image/jpeg",
			"name":"Normals",
			"uri":"Normals.jpg"
		},
		{
			"mimeType":"image/jpeg",
			"name":"rgb",
			"uri":"rgb.jpg"
		},
		{
			"mimeType":"image/jpeg",
			"name":"material",
			"uri":"material.jpg"
		},
		{
			"mimeType":"image/jpeg",
			"name":"churchHmain_albedo",
			"uri":"churchHmain_albedo.jpg"
		},
		{
			"mimeType":"image/png",
			"name":"churchHadd_albedo",
			"uri":"churchHadd_albedo.png"
		},
		{
			"mimeType":"image/jpeg",
			"name":"churchH_w1_albedo",
			"uri":"churchH_w1_albedo.jpg"
		},
		{
			"mimeType":"image/png",
			"name":"churchH_w1_roughness",
			"uri":"churchH_w1_roughness.png"
		},
		{
			"mimeType":"image/png",
			"name":"churchH_w2_albedo",
			"uri":"churchH_w2_albedo.png"
		},
		{
			"mimeType":"image/png",
			"name":"churchH_w2_roughness",
			"uri":"churchH_w2_roughness.png"
		},
		{
			"mimeType":"image/jpeg",
			"name":"churchHtop_albedo",
			"uri":"churchHtop_albedo.jpg"
		},
		{
			"mimeType":"image/png",
			"name":"churchHmetal_albedo",
			"uri":"churchHmetal_albedo.png"
		}
	],
	"accessors":[
		{
			"bufferView":0,
			"componentType":5126,
			"count":3203,
			"max":[
				0.22534909844398499,
				0.27271100878715515,
				0.20172801613807678
			],
			"min":[
				-0.24666711688041687,
				-0.2672978341579437,
				-0.2005814015865326
			],
			"type":"VEC3"
		},
		{
			"bufferView":1,
			"componentType":5126,
			"count":3203,
			"type":"VEC3"
		},
		{
			"bufferView":2,
			"componentType":5126,
			"count":3203,
			"type":"VEC2"
		},
		{
			"bufferView":3,
			"componentType":5123,
			"count":14412,
			"type":"SCALAR"
		},
		{
			"bufferView":4,
			"componentType":5126,
			"count":58823,
			"max":[
				21.912513732910156,
				41.634033203125,
				15.629955291748047
			],
			"min":[
				-22.16106605529785,
				-0.011037588119506836,
				-14.1657075881958
			],
			"type":"VEC3"
		},
		{
			"bufferView":5,
			"componentType":5126,
			"count":58823,
			"type":"VEC3"
		},
		{
			"bufferView":6,
			"componentType":5126,
			"count":58823,
			"type":"VEC2"
		},
		{
			"bufferView":7,
			"componentType":5123,
			"count":245631,
			"type":"SCALAR"
		},
		{
			"bufferView":8,
			"componentType":5126,
			"count":1293,
			"max":[
				15.061896324157715,
				31.289575576782227,
				14.748588562011719
			],
			"min":[
				7.225419521331787,
				26.95395851135254,
				6.919155120849609
			],
			"type":"VEC3"
		},
		{
			"bufferView":9,
			"componentType":5126,
			"count":1293,
			"type":"VEC3"
		},
		{
			"bufferView":10,
			"componentType":5126,
			"count":1293,
			"type":"VEC2"
		},
		{
			"bufferView":11,
			"componentType":5123,
			"count":5379,
			"type":"SCALAR"
		},
		{
			"bufferView":12,
			"componentType":5126,
			"count":2412,
			"max":[
				18.083662033081055,
				10.872014045715332,
				10.65434741973877
			],
			"min":[
				-18.468809127807617,
				6.671719074249268,
				-10.814976692199707
			],
			"type":"VEC3"
		},
		{
			"bufferView":13,
			"componentType":5126,
			"count":2412,
			"type":"VEC3"
		},
		{
			"bufferView":14,
			"componentType":5126,
			"count":2412,
			"type":"VEC2"
		},
		{
			"bufferView":15,
			"componentType":5123,
			"count":4428,
			"type":"SCALAR"
		},
		{
			"bufferView":16,
			"componentType":5126,
			"count":468,
			"max":[
				17.820085525512695,
				10.664835929870605,
				10.342781066894531
			],
			"min":[
				-18.175859451293945,
				6.852549076080322,
				-10.537800788879395
			],
			"type":"VEC3"
		},
		{
			"bufferView":17,
			"componentType":5126,
			"count":468,
			"type":"VEC3"
		},
		{
			"bufferView":18,
			"componentType":5126,
			"count":468,
			"type":"VEC2"
		},
		{
			"bufferView":19,
			"componentType":5123,
			"count":1332,
			"type":"SCALAR"
		},
		{
			"bufferView":20,
			"componentType":5126,
			"count":837,
			"max":[
				20.612157821655273,
				12.117451667785645,
				12.97880744934082
			],
			"min":[
				0.7876978516578674,
				6.563828945159912,
				-13.077877044677734
			],
			"type":"VEC3"
		},
		{
			"bufferView":21,
			"componentType":5126,
			"count":837,
			"type":"VEC3"
		},
		{
			"bufferView":22,
			"componentType":5126,
			"count":837,
			"type":"VEC2"
		},
		{
			"bufferView":23,
			"componentType":5123,
			"count":1485,
			"type":"SCALAR"
		},
		{
			"bufferView":24,
			"componentType":5126,
			"count":165,
			"max":[
				20.527074813842773,
				11.827188491821289,
				12.894640922546387
			],
			"min":[
				1.0230149030685425,
				6.809955596923828,
				-12.993711471557617
			],
			"type":"VEC3"
		},
		{
			"bufferView":25,
			"componentType":5126,
			"count":165,
			"type":"VEC3"
		},
		{
			"bufferView":26,
			"componentType":5126,
			"count":165,
			"type":"VEC2"
		},
		{
			"bufferView":27,
			"componentType":5123,
			"count":477,
			"type":"SCALAR"
		},
		{
			"bufferView":28,
			"componentType":5126,
			"count":5060,
			"max":[
				12.841243743896484,
				49.51713943481445,
				12.546899795532227
			],
			"min":[
				-15.06594467163086,
				24.148197174072266,
				-1.3033987283706665
			],
			"type":"VEC3"
		},
		{
			"bufferView":29,
			"componentType":5126,
			"count":5060,
			"type":"VEC3"
		},
		{
			"bufferView":30,
			"componentType":5126,
			"count":5060,
			"type":"VEC2"
		},
		{
			"bufferView":31,
			"componentType":5123,
			"count":20064,
			"type":"SCALAR"
		},
		{
			"bufferView":32,
			"componentType":5126,
			"count":2588,
			"max":[
				11.616053581237793,
				53.031822204589844,
				11.251958847045898
			],
			"min":[
				-14.228233337402344,
				28.348493576049805,
				-0.5192232131958008
			],
			"type":"VEC3"
		},
		{
			"bufferView":33,
			"componentType":5126,
			"count":2588,
			"type":"VEC3"
		},
		{
			"bufferView":34,
			"componentType":5126,
			"count":2588,
			"type":"VEC2"
		},
		{
			"bufferView":35,
			"componentType":5123,
			"count":9360,
			"type":"SCALAR"
		}
	],
	"bufferViews":[
		{
			"buffer":0,
			"byteLength":38436,
			"byteOffset":0,
			"target":34962
		},
		{
			"buffer":0,
			"byteLength":38436,
			"byteOffset":38436,
			"target":34962
		},
		{
			"buffer":0,
			"byteLength":25624,
			"byteOffset":76872,
			"target":34962
		},
		{
			"buffer":0,
			"byteLength":28824,
			"byteOffset":102496,
			"target":34963
		},
		{
			"buffer":0,
			"byteLength":705876,
			"byteOffset":131320,
			"target":34962
		},
		{
			"buffer":0,
			"byteLength":705876,
			"byteOffset":837196,
			"target":34962
		},
		{
			"buffer":0,
			"byteLength":470584,
			"byteOffset":1543072,
			"target":34962
		},
		{
			"buffer":0,
			"byteLength":491262,
			"byteOffset":2013656,
			"target":34963
		},
		{
			"buffer":0,
			"byteLength":15516,
			"byteOffset":2504920,
			"target":34962
		},
		{
			"buffer":0,
			"byteLength":15516,
			"byteOffset":2520436,
			"target":34962
		},
		{
			"buffer":0,
			"byteLength":10344,
			"byteOffset":2535952,
			"target":34962
		},
		{
			"buffer":0,
			"byteLength":10758,
			"byteOffset":2546296,
			"target":34963
		},
		{
			"buffer":0,
			"byteLength":28944,
			"byteOffset":2557056,
			"target":34962
		},
		{
			"buffer":0,
			"byteLength":28944,
			"byteOffset":2586000,
			"target":34962
		},
		{
			"buffer":0,
			"byteLength":19296,
			"byteOffset":2614944,
			"target":34962
		},
		{
			"buffer":0,
			"byteLength":8856,
			"byteOffset":2634240,
			"target":34963
		},
		{
			"buffer":0,
			"byteLength":5616,
			"byteOffset":2643096,
			"target":34962
		},
		{
			"buffer":0,
			"byteLength":5616,
			"byteOffset":2648712,
			"target":34962
		},
		{
			"buffer":0,
			"byteLength":3744,
			"byteOffset":2654328,
			"target":34962
		},
		{
			"buffer":0,
			"byteLength":2664,
			"byteOffset":2658072,
			"target":34963
		},
		{
			"buffer":0,
			"byteLength":10044,
			"byteOffset":2660736,
			"target":34962
		},
		{
			"buffer":0,
			"byteLength":10044,
			"byteOffset":2670780,
			"target":34962
		},
		{
			"buffer":0,
			"byteLength":6696,
			"byteOffset":2680824,
			"target":34962
		},
		{
			"buffer":0,
			"byteLength":2970,
			"byteOffset":2687520,
			"target":34963
		},
		{
			"buffer":0,
			"byteLength":1980,
			"byteOffset":2690492,
			"target":34962
		},
		{
			"buffer":0,
			"byteLength":1980,
			"byteOffset":2692472,
			"target":34962
		},
		{
			"buffer":0,
			"byteLength":1320,
			"byteOffset":2694452,
			"target":34962
		},
		{
			"buffer":0,
			"byteLength":954,
			"byteOffset":2695772,
			"target":34963
		},
		{
			"buffer":0,
			"byteLength":60720,
			"byteOffset":2696728,
			"target":34962
		},
		{
			"buffer":0,
			"byteLength":60720,
			"byteOffset":2757448,
			"target":34962
		},
		{
			"buffer":0,
			"byteLength":40480,
			"byteOffset":2818168,
			"target":34962
		},
		{
			"buffer":0,
			"byteLength":40128,
			"byteOffset":2858648,
			"target":34963
		},
		{
			"buffer":0,
			"byteLength":31056,
			"byteOffset":2898776,
			"target":34962
		},
		{
			"buffer":0,
			"byteLength":31056,
			"byteOffset":2929832,
			"target":34962
		},
		{
			"buffer":0,
			"byteLength":20704,
			"byteOffset":2960888,
			"target":34962
		},
		{
			"buffer":0,
			"byteLength":18720,
			"byteOffset":2981592,
			"target":34963
		}
	],
	"samplers":[
		{
			"magFilter":9729,
			"minFilter":9987
		}
	],
	"buffers":[
		{
			"byteLength":3000312,
			"uri":"200y.bin"
		}
	]
}
